<?xml version="1.0" encoding="UTF-8" standalone="no"?>
<svg xmlns="http://www.w3.org/2000/svg" version="1.1" viewBox="0 0 176 40">
    <path
            d="M 7.2734375 0 A 7.273 7.273 0 0 0 0 7.2734375 L 0 32.726562 A 7.273 7.273 0 0 0 7.2734375 40 L 85.65625 40 A 7.273 7.273 0 0 0 92.929688 32.726562 L 92.929688 7.2734375 A 7.273 7.273 0 0 0 85.65625 0 L 7.2734375 0 z M 125.31836 3.9023438 C 124.32936 3.9023438 123.47305 4.0637187 122.74805 4.3867188 C 122.02305 4.7097187 121.46989 5.1528906 121.08789 5.7128906 C 120.70489 6.2728906 120.51367 6.9071406 120.51367 7.6191406 C 120.51367 8.3581406 120.66575 8.9662656 120.96875 9.4472656 C 121.27175 9.9282656 121.72227 10.333109 122.32227 10.662109 C 122.92127 10.992109 123.73014 11.30375 124.74414 11.59375 C 125.81214 11.90975 126.61348 12.174578 127.14648 12.392578 C 127.68048 12.609578 128.08156 12.864297 128.35156 13.154297 C 128.62156 13.444297 128.75781 13.813719 128.75781 14.261719 C 128.75781 14.960719 128.48173 15.506344 127.92773 15.902344 C 127.37473 16.297344 126.53797 16.494141 125.41797 16.494141 C 124.37597 16.494141 123.57563 16.294578 123.01562 15.892578 C 122.45563 15.489578 122.11409 15.011984 121.99609 14.458984 C 121.90309 14.194984 121.74091 14.0625 121.50391 14.0625 L 120.5332 14.0625 A 0.402 0.402 0 0 0 120.23828 14.181641 A 0.38 0.38 0 0 0 120.11914 14.458984 C 120.14514 15.103984 120.36625 15.707578 120.78125 16.267578 C 121.19625 16.828578 121.80161 17.279094 122.59961 17.621094 C 123.39661 17.964094 124.33697 18.134766 125.41797 18.134766 C 127.02497 18.134766 128.29919 17.788656 129.24219 17.097656 C 130.18419 16.405656 130.6543 15.440172 130.6543 14.201172 C 130.6543 13.462172 130.49764 12.860578 130.18164 12.392578 C 129.86464 11.924578 129.38605 11.532797 128.74805 11.216797 C 128.10805 10.900797 127.22742 10.584578 126.10742 10.267578 C 125.13242 9.9785781 124.39177 9.7200938 123.88477 9.4960938 C 123.37777 9.2720937 123.00181 9.0165625 122.75781 8.7265625 C 122.51281 8.4365625 122.39258 8.0616094 122.39258 7.5996094 C 122.39258 6.9146094 122.65659 6.3978281 123.18359 6.0488281 C 123.71059 5.6988281 124.42136 5.5234375 125.31836 5.5234375 C 126.14836 5.5234375 126.83958 5.7071719 127.39258 6.0761719 C 127.94658 6.4451719 128.2628 6.9134687 128.3418 7.4804688 A 0.538 0.538 0 0 0 128.53906 7.7773438 A 0.498 0.498 0 0 0 128.83594 7.8769531 L 129.82422 7.8769531 A 0.402 0.402 0 0 0 130.24023 7.4609375 C 130.21323 6.9079375 130.00895 6.3575469 129.62695 5.8105469 C 129.24495 5.2645469 128.68803 4.8083125 127.95703 4.4453125 C 127.22503 4.0833125 126.34636 3.9023438 125.31836 3.9023438 z M 104.33984 4.1015625 A 0.41 0.41 0 0 0 104.04883 4.2285156 C 103.97083 4.3145156 103.92969 4.4236875 103.92969 4.5546875 L 103.92969 17.482422 A 0.462 0.462 0 0 0 104.04883 17.810547 A 0.409 0.409 0 0 0 104.36328 17.9375 L 105.35352 17.9375 A 0.442 0.442 0 0 0 105.67969 17.808594 C 105.76569 17.722594 105.80664 17.614422 105.80664 17.482422 L 105.80664 4.5546875 C 105.80664 4.4096875 105.76845 4.29875 105.68945 4.21875 C 105.61045 4.13975 105.49852 4.1015625 105.35352 4.1015625 L 104.36328 4.1015625 A 0.41 0.41 0 0 0 104.33984 4.1015625 z M 108.70898 4.1015625 A 0.41 0.41 0 0 0 108.41797 4.2285156 C 108.33897 4.3145156 108.29883 4.4292188 108.29883 4.5742188 L 108.29883 17.482422 A 0.462 0.462 0 0 0 108.41797 17.810547 A 0.41 0.41 0 0 0 108.73242 17.9375 L 109.64258 17.9375 A 0.442 0.442 0 0 0 110.09766 17.482422 L 110.09766 7.5605469 L 116.71875 17.660156 C 116.81075 17.845156 116.96936 17.9375 117.19336 17.9375 L 118.08203 17.9375 A 0.426 0.426 0 0 0 118.4082 17.798828 A 0.476 0.476 0 0 0 118.53711 17.462891 L 118.53711 4.5742188 A 0.469 0.469 0 0 0 118.4082 4.2285156 C 118.3232 4.1425156 118.20845 4.1015625 118.06445 4.1015625 L 117.17383 4.1015625 A 0.441 0.441 0 0 0 116.84766 4.2285156 C 116.76166 4.3145156 116.71875 4.4292188 116.71875 4.5742188 L 116.71875 14.576172 L 110.09766 4.3769531 C 110.03166 4.2979531 109.96444 4.2316875 109.89844 4.1796875 C 109.83244 4.1266875 109.73452 4.1015625 109.60352 4.1015625 L 108.73242 4.1015625 A 0.41 0.41 0 0 0 108.70898 4.1015625 z M 131.27539 4.1015625 A 0.442 0.442 0 0 0 131.00195 4.2285156 C 130.91595 4.3145156 130.87109 4.4292188 130.87109 4.5742188 L 130.87109 5.3457031 A 0.44 0.44 0 0 0 131.32617 5.8007812 L 135.14258 5.8007812 L 135.14258 17.482422 A 0.44 0.44 0 0 0 135.26953 17.810547 L 135.27148 17.808594 A 0.44 0.44 0 0 0 135.5957 17.9375 L 136.54688 17.9375 A 0.476 0.476 0 0 0 136.88281 17.808594 C 136.97481 17.722594 137.01953 17.614422 137.01953 17.482422 L 137.01953 5.8007812 L 140.81641 5.8007812 A 0.442 0.442 0 0 0 141.27148 5.3457031 L 141.27148 4.5742188 A 0.49 0.49 0 0 0 141.15039 4.2285156 C 141.07139 4.1425156 140.96041 4.1015625 140.81641 4.1015625 L 131.32617 4.1015625 A 0.442 0.442 0 0 0 131.27539 4.1015625 z M 145.30273 4.1015625 C 144.98573 4.1015625 144.77492 4.2451562 144.66992 4.5351562 L 139.76758 17.324219 L 139.72852 17.542969 A 0.38 0.38 0 0 0 139.84766 17.818359 A 0.379 0.379 0 0 0 140.12305 17.9375 L 141.07227 17.9375 C 141.29627 17.9375 141.46041 17.825563 141.56641 17.601562 L 142.6543 14.755859 L 149.19727 14.755859 L 150.30469 17.601562 A 0.519 0.519 0 0 0 150.79883 17.9375 L 151.72656 17.9375 A 0.413 0.413 0 0 0 152.01367 17.818359 A 0.366 0.366 0 0 0 152.14258 17.542969 L 152.10352 17.324219 L 147.19922 4.5351562 C 147.09422 4.2461563 146.88436 4.1015625 146.56836 4.1015625 L 145.30273 4.1015625 z M 153.69922 4.1015625 A 0.41 0.41 0 0 0 153.40625 4.2285156 C 153.32825 4.3145156 153.28906 4.4292188 153.28906 4.5742188 L 153.28906 17.482422 A 0.462 0.462 0 0 0 153.40625 17.810547 A 0.409 0.409 0 0 0 153.72266 17.9375 L 154.63281 17.9375 A 0.442 0.442 0 0 0 155.08789 17.482422 L 155.08789 7.5605469 L 161.71094 17.660156 C 161.80294 17.845156 161.95959 17.9375 162.18359 17.9375 L 163.07422 17.9375 A 0.426 0.426 0 0 0 163.40039 17.798828 A 0.476 0.476 0 0 0 163.52734 17.462891 L 163.52734 4.5742188 A 0.468 0.468 0 0 0 163.40039 4.2285156 C 163.31439 4.1425156 163.19969 4.1015625 163.05469 4.1015625 L 162.16406 4.1015625 A 0.442 0.442 0 0 0 161.83789 4.2285156 C 161.75189 4.3145156 161.71094 4.4292188 161.71094 4.5742188 L 161.71094 14.576172 L 155.08789 4.3769531 C 155.02089 4.2979531 154.95663 4.2316875 154.89062 4.1796875 C 154.82462 4.1266875 154.72475 4.1015625 154.59375 4.1015625 L 153.72461 4.1015625 A 0.41 0.41 0 0 0 153.69922 4.1015625 z M 165.1582 4.1015625 A 0.442 0.442 0 0 0 164.88281 4.2285156 C 164.79681 4.3145156 164.75391 4.4292188 164.75391 4.5742188 L 164.75391 5.3457031 A 0.44 0.44 0 0 0 165.20703 5.8007812 L 169.02344 5.8007812 L 169.02344 17.482422 A 0.44 0.44 0 0 0 169.15234 17.810547 A 0.44 0.44 0 0 0 169.47656 17.9375 L 170.42578 17.9375 A 0.476 0.476 0 0 0 170.76172 17.808594 C 170.85372 17.722594 170.90039 17.614422 170.90039 17.482422 L 170.90039 5.8007812 L 174.69727 5.8007812 A 0.442 0.442 0 0 0 175.15234 5.3457031 L 175.15234 4.5742188 A 0.49 0.49 0 0 0 175.0332 4.2285156 C 174.9542 4.1425156 174.84227 4.1015625 174.69727 4.1015625 L 165.20703 4.1015625 A 0.442 0.442 0 0 0 165.1582 4.1015625 z M 145.93555 6.0175781 L 148.64258 13.113281 L 143.22656 13.113281 L 145.93555 6.0175781 z M 13.300781 9.2070312 L 29.664062 9.2070312 L 29.664062 9.3417969 L 21.037109 25.279297 L 29.564453 25.279297 L 29.564453 29.984375 L 12.904297 29.984375 L 12.904297 29.849609 L 21.662109 13.876953 L 13.300781 13.876953 L 13.300781 9.2070312 z M 31.474609 9.2070312 L 45.927734 9.2070312 L 45.927734 13.876953 L 36.675781 13.876953 L 36.675781 17.125 L 45.138672 17.125 L 45.138672 21.693359 L 36.675781 21.693359 L 36.675781 25.28125 L 45.927734 25.28125 L 45.927734 29.984375 L 31.474609 29.984375 L 31.474609 9.2070312 z M 54.982422 9.2070312 L 60.382812 9.2070312 L 68.087891 29.984375 L 62.720703 29.984375 L 61.271484 25.957031 L 53.929688 25.957031 L 52.513672 29.984375 L 47.277344 29.984375 L 54.982422 9.2070312 z M 69.306641 9.2070312 L 74.607422 9.2070312 L 74.607422 25.279297 L 83.662109 25.279297 L 83.662109 29.984375 L 69.306641 29.984375 L 69.306641 9.2070312 z M 57.617188 15.636719 L 55.542969 21.490234 L 59.691406 21.490234 L 57.617188 15.636719 z M 109.34375 19.474609 C 107.24875 19.474609 105.58919 19.983953 104.36719 21.001953 C 103.14519 22.019953 102.50431 23.451875 102.44531 25.296875 C 102.43031 25.720875 102.42383 26.394406 102.42383 27.316406 A 62.975 62.975 0 0 0 102.44727 29.314453 C 102.51927 31.232453 103.15742 32.708234 104.35742 33.740234 C 105.55842 34.772234 107.22175 35.289062 109.34375 35.289062 C 110.74975 35.289062 111.9792 35.050219 113.0332 34.574219 C 114.0882 34.099219 114.90342 33.411719 115.48242 32.511719 C 116.05942 31.610719 116.34961 30.537969 116.34961 29.292969 L 116.34961 26.744141 C 116.34961 26.583141 116.29555 26.449844 116.18555 26.339844 C 116.07555 26.229844 115.9393 26.173828 115.7793 26.173828 L 110.19922 26.173828 A 0.552 0.552 0 0 0 109.79492 26.339844 C 109.68492 26.449844 109.62891 26.584141 109.62891 26.744141 L 109.62891 28.457031 A 0.552 0.552 0 0 0 109.79492 28.865234 A 0.552 0.552 0 0 0 110.19922 29.029297 L 112.1543 29.029297 L 112.1543 29.425781 C 112.1543 30.288781 111.90425 30.932422 111.40625 31.357422 C 110.90825 31.781422 110.23572 31.994141 109.38672 31.994141 C 107.65872 31.994141 106.76603 31.065078 106.70703 29.205078 C 106.69203 28.781078 106.68555 28.143922 106.68555 27.294922 C 106.68555 26.444922 106.69203 25.814297 106.70703 25.404297 C 106.76603 23.648297 107.64475 22.769531 109.34375 22.769531 C 110.04675 22.769531 110.59052 22.915984 110.97852 23.208984 A 2.597 2.597 0 0 1 111.82422 24.263672 A 0.852 0.852 0 0 0 112.05664 24.494141 A 0.63 0.63 0 0 0 112.39648 24.570312 L 115.80078 24.570312 A 0.464 0.464 0 0 0 116.14062 24.427734 A 0.465 0.465 0 0 0 116.2832 24.087891 C 116.2542 23.340891 115.96502 22.612344 115.41602 21.902344 C 114.86702 21.192344 114.06848 20.61025 113.02148 20.15625 C 111.97448 19.70225 110.74875 19.474609 109.34375 19.474609 z M 167.87695 19.474609 C 166.64695 19.474609 165.56672 19.673359 164.63672 20.068359 C 163.70672 20.464359 162.98937 21.016562 162.48438 21.726562 C 161.97938 22.437562 161.72656 23.245344 161.72656 24.152344 C 161.72656 25.485344 162.16592 26.511516 163.04492 27.228516 C 163.92292 27.946516 165.24753 28.480031 167.01953 28.832031 C 167.92753 29.022031 168.62247 29.193656 169.10547 29.347656 C 169.58947 29.501656 169.94016 29.677 170.16016 29.875 C 170.38016 30.072 170.49023 30.325813 170.49023 30.632812 C 170.49023 31.058812 170.27752 31.390812 169.85352 31.632812 C 169.42852 31.874813 168.8193 31.994141 168.0293 31.994141 C 167.3553 31.994141 166.81802 31.881297 166.41602 31.654297 C 166.01202 31.427297 165.71539 31.138109 165.52539 30.787109 C 165.39339 30.640109 165.27211 30.537516 165.16211 30.478516 C 165.05311 30.420516 164.91037 30.390625 164.73438 30.390625 L 161.81445 30.390625 A 0.484 0.484 0 0 0 161.47461 30.523438 C 161.37861 30.611438 161.33008 30.720562 161.33008 30.851562 C 161.35908 31.642562 161.63058 32.374828 162.14258 33.048828 C 162.65558 33.722828 163.41025 34.263828 164.40625 34.673828 C 165.40125 35.083828 166.6093 35.289062 168.0293 35.289062 C 169.3323 35.289063 170.49 35.095031 171.5 34.707031 C 172.51 34.319031 173.30009 33.759344 173.87109 33.027344 C 174.44209 32.295344 174.72852 31.431547 174.72852 30.435547 C 174.72852 29.527547 174.53448 28.776594 174.14648 28.183594 C 173.75948 27.590594 173.1577 27.108375 172.3457 26.734375 C 171.5317 26.361375 170.4385 26.049781 169.0625 25.800781 C 167.8625 25.551781 167.04156 25.306453 166.60156 25.064453 C 166.16256 24.822453 165.94336 24.490406 165.94336 24.066406 C 165.94336 23.641406 166.11027 23.318609 166.44727 23.099609 C 166.78427 22.879609 167.26195 22.769531 167.87695 22.769531 C 168.41895 22.769531 168.87228 22.875891 169.23828 23.087891 C 169.60428 23.300891 169.83192 23.559188 169.91992 23.867188 A 0.846 0.846 0 0 0 170.66406 24.263672 L 173.74023 24.263672 A 0.429 0.429 0 0 0 174.07031 24.119141 A 0.484 0.484 0 0 0 174.20117 23.779297 C 174.17117 23.134297 173.90539 22.480453 173.40039 21.814453 C 172.89539 21.147453 172.17056 20.591531 171.22656 20.144531 C 170.28156 19.698531 169.16495 19.474609 167.87695 19.474609 z M 122.03711 19.695312 C 121.59811 19.695313 121.3052 19.906078 121.1582 20.330078 L 116.04297 34.410156 C 116.02797 34.453156 116.01953 34.519422 116.01953 34.607422 A 0.44 0.44 0 0 0 116.16211 34.927734 A 0.44 0.44 0 0 0 116.48047 35.068359 L 119.33594 35.068359 C 119.68794 35.068359 119.93698 34.907938 120.08398 34.585938 L 120.87305 32.455078 L 126.62891 32.455078 L 127.41992 34.585938 C 127.56692 34.908937 127.81402 35.068359 128.16602 35.068359 L 131.02148 35.068359 A 0.44 0.44 0 0 0 131.33984 34.927734 A 0.44 0.44 0 0 0 131.48242 34.607422 C 131.48242 34.520422 131.47594 34.453156 131.46094 34.410156 L 126.34375 20.332031 C 126.19675 19.907031 125.90484 19.695312 125.46484 19.695312 L 122.03711 19.695312 z M 132.61523 19.695312 A 0.552 0.552 0 0 0 132.21875 19.859375 C 132.10875 19.969375 132.05273 20.104625 132.05273 20.265625 L 132.05273 34.519531 A 0.516 0.516 0 0 0 132.21875 34.916016 A 0.572 0.572 0 0 0 132.62305 35.068359 L 135.39258 35.068359 A 0.572 0.572 0 0 0 135.79883 34.916016 A 0.516 0.516 0 0 0 135.96289 34.519531 L 135.96289 26.525391 L 138.3125 30.873047 C 138.5325 31.210047 138.78803 31.378906 139.08203 31.378906 L 140.26758 31.378906 C 140.58858 31.378906 140.84516 31.210047 141.03516 30.873047 L 143.4082 26.525391 L 143.4082 34.519531 A 0.527 0.527 0 0 0 143.57227 34.904297 A 0.527 0.527 0 0 0 143.95703 35.068359 L 146.74609 35.068359 A 0.573 0.573 0 0 0 147.15234 34.916016 A 0.516 0.516 0 0 0 147.31836 34.519531 L 147.31836 20.265625 C 147.31836 20.104625 147.26234 19.969375 147.15234 19.859375 C 147.04234 19.750375 146.90609 19.695312 146.74609 19.695312 L 144.26562 19.695312 C 143.89962 19.695312 143.63461 19.855734 143.47461 20.177734 L 139.67578 26.943359 L 135.89648 20.177734 C 135.73648 19.855734 135.47147 19.695312 135.10547 19.695312 L 132.62305 19.695312 A 0.552 0.552 0 0 0 132.61523 19.695312 z M 149.72656 19.695312 A 0.516 0.516 0 0 0 149.36133 19.859375 C 149.25733 19.968375 149.20703 20.104625 149.20703 20.265625 L 149.20703 34.519531 A 0.527 0.527 0 0 0 149.37109 34.904297 A 0.527 0.527 0 0 0 149.75586 35.070312 L 160.29883 35.070312 A 0.573 0.573 0 0 0 160.70508 34.916016 A 0.516 0.516 0 0 0 160.86914 34.519531 L 160.86914 32.345703 C 160.86914 32.184703 160.81508 32.049453 160.70508 31.939453 C 160.59508 31.829453 160.45883 31.775391 160.29883 31.775391 L 153.18164 31.775391 L 153.18164 28.919922 L 159.64062 28.919922 A 0.552 0.552 0 0 0 160.04688 28.755859 A 0.551 0.551 0 0 0 160.21094 28.349609 L 160.21094 26.349609 C 160.21094 26.188609 160.15688 26.053359 160.04688 25.943359 C 159.93687 25.834359 159.80062 25.779297 159.64062 25.779297 L 153.18359 25.779297 L 153.18359 22.988281 L 160.12305 22.988281 A 0.573 0.573 0 0 0 160.5293 22.835938 A 0.516 0.516 0 0 0 160.69336 22.439453 L 160.69336 20.265625 C 160.69336 20.104625 160.6393 19.969375 160.5293 19.859375 C 160.4193 19.749375 160.28305 19.695312 160.12305 19.695312 L 149.75586 19.695312 A 0.516 0.516 0 0 0 149.72656 19.695312 z M 123.75195 23.560547 L 125.70508 29.160156 L 121.79688 29.160156 L 123.75195 23.560547 z "
            style="fill:#ffffff;fill-rule:evenodd"/>
</svg>
